<mxfile host="app.diagrams.net" modified="2023-04-16T12:30:41.106Z" agent="Mozilla/5.0 (Windows NT 10.0; Win64; x64) AppleWebKit/537.36 (KHTML, like Gecko) Chrome/112.0.0.0 Safari/537.36" etag="L-zRTCxQeVYJgKD4dU8q" version="21.1.7" type="device">
  <diagram id="61VdjfadAhDr90nPG6A9" name="Page-1">
    <mxGraphModel dx="719" dy="375" grid="1" gridSize="10" guides="1" tooltips="1" connect="1" arrows="1" fold="1" page="1" pageScale="1" pageWidth="827" pageHeight="1169" math="0" shadow="0">
      <root>
        <mxCell id="0" />
        <mxCell id="1" parent="0" />
        <mxCell id="WbfAhR3PzNlKg7V9zck_-1" style="edgeStyle=orthogonalEdgeStyle;rounded=0;orthogonalLoop=1;jettySize=auto;html=1;exitX=0.5;exitY=1;exitDx=0;exitDy=0;entryX=0.5;entryY=0;entryDx=0;entryDy=0;strokeColor=#484848;" parent="1" source="WbfAhR3PzNlKg7V9zck_-2" target="WbfAhR3PzNlKg7V9zck_-8" edge="1">
          <mxGeometry relative="1" as="geometry">
            <Array as="points">
              <mxPoint x="135" y="100" />
            </Array>
            <mxPoint x="220" y="264" as="targetPoint" />
          </mxGeometry>
        </mxCell>
        <mxCell id="WbfAhR3PzNlKg7V9zck_-2" value="" style="ellipse;fillColor=#484848;strokeColor=none;" parent="1" vertex="1">
          <mxGeometry x="120" y="80" width="30" height="30" as="geometry" />
        </mxCell>
        <mxCell id="WbfAhR3PzNlKg7V9zck_-8" value="&lt;font color=&quot;#484848&quot;&gt;&lt;b&gt;Collect and check&lt;br&gt;&amp;nbsp;medical texts&lt;/b&gt;&lt;/font&gt;" style="html=1;align=center;verticalAlign=top;rounded=1;absoluteArcSize=1;arcSize=10;dashed=0;fillColor=#FFFFFF;strokeColor=#484848;fontFamily=Montserrat Semibold;" parent="1" vertex="1">
          <mxGeometry x="50" y="130" width="170" height="40" as="geometry" />
        </mxCell>
        <mxCell id="D_i69omSW4-4UMKgqZ6J-12" value="" style="edgeStyle=orthogonalEdgeStyle;rounded=0;orthogonalLoop=1;jettySize=auto;html=1;strokeColor=#484848;exitX=0.5;exitY=1;exitDx=0;exitDy=0;entryX=0.5;entryY=0;entryDx=0;entryDy=0;fontFamily=Montserrat Semibold;" parent="1" source="WbfAhR3PzNlKg7V9zck_-8" target="x-mFpusxQclfoRyQ54ny-2" edge="1">
          <mxGeometry x="-0.1111" relative="1" as="geometry">
            <mxPoint x="-165" y="395" as="sourcePoint" />
            <mxPoint x="-110" y="438.5" as="targetPoint" />
            <Array as="points" />
            <mxPoint as="offset" />
          </mxGeometry>
        </mxCell>
        <mxCell id="D_i69omSW4-4UMKgqZ6J-14" value="" style="edgeStyle=orthogonalEdgeStyle;rounded=0;orthogonalLoop=1;jettySize=auto;html=1;strokeColor=#484848;exitX=0.5;exitY=1;exitDx=0;exitDy=0;entryX=0.5;entryY=0;entryDx=0;entryDy=0;fontFamily=Montserrat Semibold;" parent="1" source="x-mFpusxQclfoRyQ54ny-2" target="x-mFpusxQclfoRyQ54ny-3" edge="1">
          <mxGeometry x="-0.1111" relative="1" as="geometry">
            <mxPoint x="-110" y="470" as="sourcePoint" />
            <mxPoint x="-160" y="575" as="targetPoint" />
            <Array as="points">
              <mxPoint x="135" y="240" />
              <mxPoint x="135" y="240" />
            </Array>
            <mxPoint as="offset" />
          </mxGeometry>
        </mxCell>
        <mxCell id="D_i69omSW4-4UMKgqZ6J-15" value="" style="ellipse;html=1;shape=endState;fillColor=#484848;strokeColor=#484848;fontFamily=Montserrat Semibold;" parent="1" vertex="1">
          <mxGeometry x="120" y="330" width="30" height="29" as="geometry" />
        </mxCell>
        <mxCell id="D_i69omSW4-4UMKgqZ6J-16" value="" style="edgeStyle=orthogonalEdgeStyle;rounded=0;orthogonalLoop=1;jettySize=auto;html=1;strokeColor=#484848;exitX=0.5;exitY=1;exitDx=0;exitDy=0;entryX=0.5;entryY=0;entryDx=0;entryDy=0;fontFamily=Montserrat Semibold;" parent="1" source="x-mFpusxQclfoRyQ54ny-3" target="D_i69omSW4-4UMKgqZ6J-15" edge="1">
          <mxGeometry x="-0.1111" relative="1" as="geometry">
            <mxPoint x="-115" y="495" as="sourcePoint" />
            <mxPoint x="-115" y="545" as="targetPoint" />
            <Array as="points" />
            <mxPoint as="offset" />
          </mxGeometry>
        </mxCell>
        <mxCell id="x-mFpusxQclfoRyQ54ny-2" value="&lt;font color=&quot;#484848&quot;&gt;Apply the new tool &lt;br&gt;to correct spelling mistakes&lt;/font&gt;" style="html=1;align=center;verticalAlign=top;rounded=1;absoluteArcSize=1;arcSize=10;dashed=0;fillColor=#FFFFFF;strokeColor=#484848;fontFamily=Montserrat Semibold;" vertex="1" parent="1">
          <mxGeometry x="40" y="191" width="190" height="40" as="geometry" />
        </mxCell>
        <mxCell id="x-mFpusxQclfoRyQ54ny-3" value="&lt;font color=&quot;#484848&quot;&gt;Perform further &lt;br&gt;pre-processing steps&lt;/font&gt;" style="html=1;align=center;verticalAlign=middle;rounded=1;absoluteArcSize=1;arcSize=10;dashed=0;fillColor=default;strokeColor=#484848;fontFamily=Montserrat Semibold;gradientColor=none;" vertex="1" parent="1">
          <mxGeometry x="50" y="250" width="170" height="60" as="geometry" />
        </mxCell>
      </root>
    </mxGraphModel>
  </diagram>
</mxfile>
